<?xml version="1.0" encoding="UTF-8"?>
<svg width="18px" height="18px" viewBox="0 0 18 18" version="1.1" xmlns="http://www.w3.org/2000/svg" xmlns:xlink="http://www.w3.org/1999/xlink">
    <title>measure_humidity</title>
    <g id="Page-1" stroke="none" stroke-width="1" fill="none" fill-rule="evenodd">
        <g id="AMS" transform="translate(-128, -124)" fill="#8F8F94" fill-rule="nonzero">
            <g id="Temp-+-Humid" transform="translate(118, 120)">
                <g id="Group" transform="translate(10, 4)">
                    <g id="measure_humidity" transform="translate(4.2188, 2.25)">
                        <path d="M4.78125,0 C6.34933884,0 9.5625,5.23435376 9.5625,8.5546875 C9.5625,11.281208 7.42676435,13.5 4.78125,13.5 C2.13573565,13.5 0,11.281208 0,8.5546875 C0,5.23435376 3.21316116,0 4.78125,0 Z M4.78096875,1.1503125 L4.75675498,1.16595464 C4.73681783,1.17889215 4.71494046,1.19402142 4.69140098,1.21130261 C4.54978638,1.31526706 4.37374529,1.47774543 4.17902898,1.68694758 C3.750428,2.14743419 3.27321262,2.78694012 2.83589094,3.49935268 C1.78293855,5.21464956 1.125,7.04690224 1.125,8.5546875 C1.125,10.6692881 2.76686177,12.375 4.78125,12.375 C6.79563823,12.375 8.4375,10.6692881 8.4375,8.5546875 C8.4375,7.04690224 7.77956145,5.21464956 6.72660906,3.49935268 C6.28928738,2.78694012 5.812072,2.14743419 5.38347102,1.68694758 C5.18875471,1.47774543 5.01271362,1.31526706 4.87109902,1.21130261 C4.84755954,1.19402142 4.82568217,1.17889215 4.80574502,1.16595464 L4.78096875,1.1503125 Z M4.36320973,2.67551327 L4.36675195,2.671875 C4.4423799,2.59624705 4.56499705,2.59624705 4.640625,2.671875 C4.72447791,2.7546826 4.74747451,2.87906939 4.7002038,2.98532069 L4.6756179,3.04057038 C4.49371997,3.45798147 4.24768066,4.13195801 3.9375,5.0625 C3.58895874,6.10812378 3.40239216,7.2347349 3.37781705,8.44233365 C3.3751773,8.59590713 3.24981795,8.7189609 3.09622192,8.71875001 L2.24128004,8.71821474 C2.08624557,8.70863621 1.96833023,8.57519101 1.97790876,8.42015654 L1.98642408,8.29991134 C2.05605255,7.45167767 2.33141119,6.46629056 2.8125,5.34375 C3.30676683,4.19046072 3.80103367,3.32671183 4.2953005,2.75250333 L4.36320973,2.67551327 Z" id="Shape"></path>
                    </g>
                </g>
            </g>
        </g>
    </g>
</svg>