<?xml version="1.0" encoding="UTF-8"?>
<svg width="18px" height="18px" viewBox="0 0 18 18" version="1.1" xmlns="http://www.w3.org/2000/svg" xmlns:xlink="http://www.w3.org/1999/xlink">
    <title>measure_humidity</title>
    <g id="Page-1" stroke="none" stroke-width="1" fill="none" fill-rule="evenodd">
        <g id="AMS" transform="translate(-176, -124)" fill="#8F8F94" fill-rule="nonzero">
            <g id="Temp-+-Humid" transform="translate(118, 120)">
                <g id="Group" transform="translate(10, 4)">
                    <g id="Group-2" transform="translate(48, 0)">
                        <g id="measure_humidity" transform="translate(5.3438, 1.6875)">
                            <path d="M3.65596875,0 L3.73088313,0.00107918562 C5.09433365,0.040558643 6.1875,1.15824191 6.1875,2.53118955 L6.18778125,8.330625 L6.21652974,8.35829353 C6.88344259,9.01210453 7.28511392,9.90589506 7.31115099,10.86889 L7.3125,10.96875 C7.3125,12.9880411 5.67554112,14.625 3.65625,14.625 C1.63695888,14.625 0,12.9880411 0,10.96875 C0,9.96768131 0.406174073,9.0343936 1.09624996,8.3580191 L1.125,8.33034375 L1.125,2.53125 C1.125,1.15824299 2.21816635,0.0405586623 3.58161687,0.00107918597 L3.65596875,0 Z M3.65625,1.125 C2.87959957,1.125 2.25,1.75459957 2.25,2.53125 L2.24993933,8.86378878 C1.57160639,9.31787878 1.125,10.0911591 1.125,10.96875 C1.125,12.3667208 2.25827923,13.5 3.65625,13.5 C5.05422077,13.5 6.1875,12.3667208 6.1875,10.96875 C6.1875,10.0912797 5.74101635,9.31809131 5.0628403,8.863976 L5.0625,2.53125 C5.0625,1.75459957 4.43290043,1.125 3.65625,1.125 Z M3.65625,4.78125 C3.96691017,4.78125 4.21875,5.03308983 4.21875,5.34375 L4.2189429,9.37734016 C4.87426285,9.60905259 5.34375,10.234074 5.34375,10.96875 C5.34375,11.9007305 4.58823052,12.65625 3.65625,12.65625 C2.72426948,12.65625 1.96875,11.9007305 1.96875,10.96875 C1.96875,10.2339681 2.43837252,9.6088724 3.09384051,9.37723997 L3.09375,5.34375 C3.09375,5.03308983 3.34558983,4.78125 3.65625,4.78125 Z" id="Shape"></path>
                        </g>
                    </g>
                </g>
            </g>
        </g>
    </g>
</svg>