<?xml version="1.0" encoding="UTF-8"?>
<svg width="960px" height="960px" viewBox="0 0 960 960" version="1.1" xmlns="http://www.w3.org/2000/svg" xmlns:xlink="http://www.w3.org/1999/xlink">
    <title>x1-carbon</title>
    <g id="x1-carbon" stroke="none" stroke-width="1" fill="none" fill-rule="evenodd">
        <path d="M357.270146,0.0206096272 L357.700403,0.0345982654 L552.577084,7.1860361 C578.482268,8.13668506 600.957186,25.3561196 608.616662,50.1217578 L609.078,51.6152293 L880.510921,60.5364216 C904.437849,61.3227526 923.690221,80.3068669 924.936417,104.089656 L924.968656,104.811801 L924.982272,105.180824 L924.989073,105.550035 L925,105.774901 L925,862.428878 C925,888.589529 904.834186,910.32774 878.747102,912.288273 L264.474505,958.452931 C238.41698,960.411242 212.331453,955.037705 189.16936,942.940306 L60.7042147,875.843861 C45.5195862,867.913036 36,852.201216 36,835.070223 L36,120.734365 C36,99.5693477 50.749072,81.2648918 71.4299281,76.7637643 L225.356269,43.2621489 C236.640777,40.806109 248.185824,39.7557846 259.72809,40.1351079 L305.195,41.6282293 L307.447254,34.8726763 C314.562053,13.5282791 334.814002,-0.615506244 357.270146,0.0206096272 Z M233.863,82.3471272 L79.9366587,115.848743 C77.6387858,116.348868 76,118.382696 76,120.734365 L76,835.070223 C76,837.304701 77.2416852,839.354068 79.2222889,840.388524 L207.687434,907.484969 C224.231786,916.125968 242.864305,919.964209 261.476823,918.565416 L292,916.271 L292,81.217 L258.414438,80.1135311 C250.169825,79.8425814 241.923363,80.592813 233.863,82.3471272 Z M841,834.479 L312,873.986 L312,914.768 L841,875.012 L841,834.479 Z M861,99.916 L861.000558,529.643509 C872.976876,531.31631 882.430803,541.336753 882.975792,553.851329 C882.991929,554.22187 883,554.592718 883,554.963609 C883,568.11127 873.575263,579.136133 861.000568,581.484215 L861,873.508 L875.74942,872.400757 C880.966837,872.008651 885,867.661008 885,862.428878 L885,106.286736 C884.880212,103.152572 882.357083,100.618688 879.197077,100.514838 L861,99.916 Z M697.098,797.766545 L332,817.128 L332,832.381545 L720.806,803.345 L697.098,797.766545 Z M821,411.705 L708.89,411.705 L708.138,480.123 L757.56012,485.291288 C765.198749,486.090099 771,492.529652 771,500.209935 L771,515.847283 C771,523.963619 764.544219,530.607745 756.431238,530.841082 L708,532.234 L708,779.785 L787.09,798.394 L821,795.862545 L821,583.495 L809.677742,583.988734 C795.571697,584.603029 783.638503,573.665806 783.024208,559.559761 C783.008071,559.18922 783,558.818372 783,558.44748 C783,544.002554 794.37635,532.12 808.807598,531.491543 L821,530.96 L821,411.705 Z M385,541.524 L332,543.048 L332,797.1 L385.332711,794.273199 C385.115653,793.453824 385,792.593191 385,791.705545 L385,541.524 Z M433,540.143 L405,540.948 L405,791.705545 C405,792.22578 404.960274,792.736737 404.88369,793.235548 L433,791.744 L433,540.143 Z M688,532.809 L453,539.568 L453,790.683 L688,778.221 L688,532.809 Z M175.873672,453.070238 L189.873672,478.211083 C189.956517,478.359854 190,478.527316 190,478.697598 L190,570.472204 C190,570.541669 189.992762,570.610944 189.978403,570.678909 C189.864243,571.219266 189.333652,571.564767 188.793295,571.450607 L174.793295,568.492861 C174.330881,568.395168 174,567.987078 174,567.514457 L174,453.556753 C174,453.193943 174.196508,452.859593 174.513485,452.683081 C174.996,452.414386 175.604977,452.587722 175.873672,453.070238 Z M163.588172,480.971993 C163.846916,481.16017 164,481.460792 164,481.780729 L164,565.471877 C164,566.024162 163.552285,566.471877 163,566.471877 C162.930449,566.471877 162.861087,566.464621 162.793041,566.450227 L148.793041,563.488688 C148.330748,563.390895 148,562.982862 148,562.510339 L148,501.030729 C148,500.819386 148.066958,500.613477 148.191264,500.442557 L162.191264,481.192557 C162.516102,480.745904 163.141519,480.647154 163.588172,480.971993 Z M857.410914,549.39805 L857.192402,549.403418 L809.677742,551.472605 C805.943642,551.635219 803,554.709841 803,558.44748 C803,558.528221 803.001757,558.608953 803.00527,558.689618 C803.138999,561.760427 805.73679,564.1414 808.807598,564.007672 L856.322258,561.938485 C860.056358,561.775871 863,558.701248 863,554.963609 L862.99473,554.721472 C862.867369,551.796892 860.505032,549.498013 857.627656,549.401224 L857.410914,549.39805 Z M607.487,489.705545 L332,489.705 L332,506.534 L715.952,501.049 L607.487,489.705545 Z M163,361.780902 C163.552285,361.780902 164,362.228617 164,362.780902 L164,458.869959 C164,459.070521 163.939692,459.266449 163.826908,459.432296 L149.826908,480.019102 C149.640722,480.292885 149.331093,480.456765 149,480.456765 C148.447715,480.456765 148,480.00905 148,479.456765 L148,363.79893 C148,363.274785 148.40471,362.839577 148.927475,362.801564 L162.927475,361.783535 C162.95161,361.780902 162.975801,361.780902 163,361.780902 Z M438,294.822 L332.08333,295.705198 L332,295.704 L332,469.705 L385,469.705 L385,361.705545 C385,356.182697 389.477153,351.705545 395,351.705545 L443,351.705545 C448.522847,351.705545 453,356.182697 453,361.705545 L453,469.705 L607.739273,469.705545 C608.260373,469.705545 608.781119,469.732699 609.299393,469.786898 L688.16,478.033 L689.000604,401.595661 L689.129,401.596 L673.762579,364.535695 C671.032312,357.950935 675.871646,350.705545 683,350.705545 L688.034,350.705 L688.095997,332.633265 C686.477381,333.879746 684.466295,334.641615 682.279905,334.701703 L682,334.705545 L632,334.705545 C626.477153,334.705545 622,330.228392 622,324.705545 L622,295.111 L578.135123,295.704632 L578,295.704 L578,331.826869 C578,335.460216 576.681226,338.970066 574.28865,341.704438 L563.019809,354.583114 C560.171488,357.838338 556.056598,359.705545 551.731159,359.705545 L538,359.705545 C535.948279,359.705545 533.946212,359.074449 532.265377,357.897864 L524.848,352.705545 L517.151,352.705545 L509.734623,357.897864 C508.152661,359.005238 506.286147,359.629411 504.361498,359.699011 L504,359.705545 L492.16616,359.705545 C491.767,359.705545 491.369554,359.689639 490.974662,359.658191 C490.654275,359.689658 490.328993,359.705545 490,359.705545 L469,359.705545 C466.520532,359.705545 464.129481,358.784411 462.290867,357.120903 L441.290867,338.120903 C439.195493,336.225088 438,333.531267 438,330.705545 L438,294.822 Z M433,371.705545 L405,371.705545 L405,469.705 L433,469.705 L433,371.705545 Z M189,360.781251 C189.552285,360.781251 190,361.228966 190,361.781251 L190,453.674646 C190,454.045253 189.795035,454.385469 189.467401,454.558691 C188.979156,454.81683 188.374093,454.630291 188.115954,454.142047 L174.115954,427.662338 C174.039806,427.51831 174,427.357857 174,427.194937 L174,362.803841 C174,362.279821 174.404523,361.844672 174.927152,361.806498 L188.927152,360.783908 C188.951394,360.781251 188.975693,360.781251 189,360.781251 Z M815,370.705545 L697.972,370.705545 L706.679,391.705545 L815,391.705545 L815,370.705545 Z M821,258.414 L716,265.605 L716,296.705545 C716,300.262216 714.110887,303.551231 711.03871,305.343334 L708.182,307.009 L708.033,350.705 L821,350.705 L821,258.414 Z M485,234.039 L485,315.705 L558,315.705 L558,234.571 L485,234.039 Z M684.652,247.705 L656.683,247.705 L642,265.324545 L642,274.839 L651.864877,274.706458 C657.38722,274.631832 661.924461,279.048079 662.000019,284.570422 C662.073713,290.092765 657.657466,294.630006 652.135123,294.704632 L642,294.841 L642,314.705545 L672,314.705545 L672,310.705545 C672,307.256652 673.776356,304.059439 676.68528,302.234764 L676.96129,302.067756 L688.222,295.498 L688.317,267.502 L685.683331,267.682171 C680.173392,268.059564 675.400767,263.898814 675.023374,258.388875 C674.645981,252.878937 678.806731,248.106312 684.316669,247.728919 L684.652,247.705 Z M458,233.842 L458.001218,276.705787 C460.406775,278.513099 461.972791,281.381164 462,284.622214 C462.027305,287.923327 460.452015,290.864163 458.00078,292.70579 L458,308.547 L465,311.494 L465,233.893 L458,233.842 Z M522.5,248.705545 C534.926407,248.705545 545,259.450711 545,272.705545 C545,285.960379 534.926407,296.705545 522.5,296.705545 C510.073593,296.705545 500,285.960379 500,272.705545 C500,259.450711 510.073593,248.705545 522.5,248.705545 Z M332,232.924545 L332,275.704 L438,274.821 L438,233.696 L332,232.924545 Z M578,234.716 L578,275.704 L622,275.11 L622,261.705545 C622,259.36618 622.820162,257.100851 624.317787,255.303701 L641.09,235.176 L578,234.716 Z M715.80315,235.721308 C715.932254,236.362639 716,237.026181 716,237.705545 L716,245.558 L821,238.366 L821,236.487545 L715.80315,235.721308 Z M312,81.874 L312,192.777 L841,196.632 L841,99.259 L600.434,91.353 L613.789205,134.535145 C616.464846,143.186383 614.945696,152.590872 609.682265,159.959675 L605.027137,166.476853 C599.475245,174.249503 590.451939,178.789795 580.901681,178.616154 L375.442554,174.880533 C362.924307,174.652929 351.823304,167.397022 346.444875,156.485211 L346.197135,155.972229 L345.970191,155.877609 C342.966541,154.595833 340.302118,152.699049 338.037315,150.37765 L337.744177,150.072467 C334.995546,147.166035 332.987292,143.774161 331.480719,140.007727 C329.168338,134.226776 328,127.321122 328,120.205545 C328,113.605861 328.929646,107.249153 330.957379,101.670994 L331.099135,101.290229 L326.057,82.336 L312,81.874 Z M355.935303,40.0007597 L355.638393,40.0007597 C350.997536,40.08102 346.87591,43.0778148 345.394586,47.5217869 L342.703837,55.5940339 L342.564531,56.0303747 C341.584584,59.2401732 341.520695,62.6633593 342.38484,65.9125424 L352.480372,103.87347 C349.859342,106.402388 348,112.761126 348,120.205545 C348,129.870528 351.134007,137.705545 355,137.705545 C356.98387,137.705545 358.774985,135.642331 360.048755,132.327374 L363.479185,145.227282 C364.971231,150.837372 370.001979,154.778308 375.80613,154.883838 L581.265257,158.619459 C584.229131,158.673347 587.029467,157.264291 588.752468,154.85209 L593.407596,148.334911 C595.041074,146.048041 595.512535,143.129406 594.682163,140.44454 L570.402452,61.9401394 C567.765627,53.4144042 560.02836,47.4864021 551.110182,47.1591295 L356.2335,40.0076917 L355.935303,40.0007597 Z M365.152423,53.8697958 L365.352119,53.8710743 L551.13079,59.6168064 C552.845651,59.6698434 554.335706,60.8105779 554.83442,62.4521762 L576.389257,133.403517 C576.513668,133.813035 576.571547,134.239865 576.561976,134.667726 C576.504636,136.876154 574.668913,138.621 572.460486,138.564948 L384.004381,133.781798 C382.224642,133.736627 380.688966,132.520652 380.236948,130.798678 L361.359543,58.8847551 C361.262004,58.5131797 361.218503,58.1294909 361.228467,57.7455104 C361.294531,55.6712504 362.926882,54.014782 364.954961,53.8782288 L365.152423,53.8697958 Z" id="Shape" fill="#000000" fill-rule="nonzero"></path>
    </g>
</svg>