<?xml version="1.0" encoding="UTF-8"?>
<svg width="600px" height="600px" viewBox="0 0 600 600" version="1.1" xmlns="http://www.w3.org/2000/svg" xmlns:xlink="http://www.w3.org/1999/xlink">
    <title>drivers/cloud/assets/icon</title>
    <g id="/drivers/cloud/assets/icon" stroke="none" stroke-width="1" fill="none" fill-rule="evenodd">
        <g id="icon" transform="translate(22, 0)" fill="#000000" fill-rule="nonzero">
            <path d="M201.035246,0.0128965105 L201.30448,0.0216499254 L323.248837,4.49667473 C339.459042,5.09154499 353.522754,15.8666365 358.315681,31.3637781 L358.604364,32.2983205 L528.453896,37.8807723 C543.426205,38.3728203 555.473404,50.2521633 556.253213,65.1342854 L556.273386,65.5861689 L556.281907,65.8170857 L556.286162,66.0481201 L556.293,66.1888304 L556.293,539.666388 C556.293,556.036461 543.674214,569.639185 527.350184,570.865992 L142.968243,599.753608 C126.66271,600.979024 110.339655,597.616524 95.8459424,590.046555 L15.4586971,548.060837 C5.95689445,543.098109 0,533.26641 0,522.546661 L0,75.5497413 C0,62.3056945 9.22925254,50.851649 22.1703273,48.0350606 L118.489952,27.0713658 C125.551248,25.5344945 132.775578,24.8772522 139.998167,25.1146144 L168.44915,26.0489377 L169.858501,21.8216385 C174.310596,8.46534445 186.983282,-0.385154115 201.035246,0.0128965105 Z M123.81305,51.5288597 L27.493426,72.4925548 C26.0555288,72.8055089 25.0300562,74.0781803 25.0300562,75.5497413 L25.0300562,522.546661 C25.0300562,523.94489 25.8070425,525.227285 27.0464081,525.874597 L107.433653,567.860316 C117.786305,573.267436 129.44563,575.669222 141.092439,574.793925 L160.19236,573.35819 L160.19236,50.8216806 L139.176147,50.131183 C134.017069,49.9616358 128.856834,50.4310945 123.81305,51.5288597 Z M503.729882,522.176702 L172.707388,546.898277 L172.707388,572.417685 L503.729882,547.540298 L503.729882,522.176702 Z M516.24491,62.5226128 L516.245259,331.425358 C523.739457,332.472116 529.655265,338.742426 529.996293,346.573444 C530.006391,346.80531 530.011441,347.037369 530.011441,347.269455 C530.011441,355.496627 524.113899,362.395454 516.245265,363.864771 L516.24491,546.599168 L525.47438,545.906309 C528.739186,545.660948 531.262944,542.940402 531.262944,539.666388 L531.262944,66.5091121 C531.187986,64.5479034 529.609135,62.962321 527.631757,62.8973367 L516.24491,62.5226128 Z M413.683003,499.203819 L185.222416,511.319284 L185.222416,520.864216 L428.518317,502.694547 L413.683003,499.203819 Z M491.214854,257.625128 L421.061864,257.625128 L420.591299,300.437812 L451.51726,303.671877 C456.297142,304.171735 459.927283,308.201296 459.927283,313.007247 L459.927283,322.792345 C459.927283,327.871156 455.887569,332.02873 450.81086,332.174741 L420.504945,333.046362 L420.504945,487.951836 L469.995624,499.59645 L491.214854,498.012388 L491.214854,365.123023 L484.129935,365.431978 C475.303057,365.816374 467.835844,358.972387 467.451449,350.145505 C467.441351,349.913638 467.4363,349.681579 467.4363,349.449493 C467.4363,340.410555 474.555067,332.975026 483.585441,332.581768 L491.214854,332.249154 L491.214854,257.625128 Z M218.387241,338.859596 L185.222416,339.813241 L185.222416,498.786727 L218.595435,497.017852 C218.459611,496.505126 218.387241,495.966584 218.387241,495.411138 L218.387241,338.859596 Z M248.423308,337.995433 L230.902269,338.499163 L230.902269,495.411138 C230.902269,495.736676 230.87741,496.056408 230.829488,496.36854 L248.423308,495.435201 L248.423308,337.995433 Z M407.989917,333.406169 L260.938336,337.635625 L260.938336,494.771278 L407.989917,486.97316 L407.989917,333.406169 Z M87.5261469,283.509499 L96.2866666,299.241427 C96.338507,299.33452 96.3657165,299.43931 96.3657165,299.545864 L96.3657165,356.973985 C96.3657165,357.017453 96.3611873,357.060802 96.3522022,357.103331 C96.2807664,357.441461 95.9487483,357.657659 95.6106192,357.586223 L86.8500995,355.735408 C86.5607433,355.674276 86.353694,355.418913 86.353694,355.12317 L86.353694,283.813936 C86.353694,283.586907 86.4766592,283.377687 86.675008,283.267234 C86.9769424,283.099098 87.3580107,283.207563 87.5261469,283.509499 Z M79.838478,300.969071 C80.0003874,301.086823 80.09618,301.274938 80.09618,301.475139 L80.09618,353.845022 C80.09618,354.190615 79.8160217,354.470774 79.4704286,354.470774 C79.4269069,354.470774 79.3835036,354.466233 79.3409237,354.457226 L70.580404,352.604038 C70.2911235,352.542844 70.0841575,352.287516 70.0841575,351.991834 L70.0841575,313.52086 C70.0841575,313.388612 70.1260565,313.259764 70.2038412,313.152811 L78.9643609,301.107089 C79.1676287,300.827595 79.5589843,300.765802 79.838478,300.969071 Z M513.999034,343.786796 L513.8623,343.790155 L484.129935,345.084953 C481.793317,345.186709 479.951328,347.110659 479.951328,349.449493 C479.951328,349.500017 479.952428,349.550535 479.954626,349.601011 C480.038307,351.522576 481.663879,353.012474 483.585441,352.928793 L513.317806,351.633996 C515.654425,351.53224 517.496413,349.608289 517.496413,347.269455 L517.493115,347.117937 C517.413419,345.287876 515.935183,343.849348 514.134661,343.788783 L513.999034,343.786796 Z M357.608794,306.434106 L185.222416,306.433765 L185.222416,316.964542 L425.48092,313.532293 L357.608794,306.434106 Z M79.4704286,226.385036 C79.8160217,226.385036 80.09618,226.665194 80.09618,227.010788 L80.09618,287.138684 C80.09618,287.264186 80.0584422,287.386788 79.9878674,287.490568 L71.2273477,300.372798 C71.1108416,300.544118 70.9170908,300.646666 70.7099089,300.646666 C70.3643158,300.646666 70.0841575,300.366508 70.0841575,300.020914 L70.0841575,227.647821 C70.0841575,227.319836 70.3374053,227.047504 70.6645263,227.023717 L79.425046,226.386684 C79.4401485,226.385036 79.455286,226.385036 79.4704286,226.385036 Z M251.552065,184.485385 L185.27456,185.038048 L185.222416,185.037298 L185.222416,293.91873 L218.387241,293.91873 L218.387241,226.337881 C218.387241,222.881949 221.188826,220.080364 224.644755,220.080364 L254.680822,220.080364 C258.136752,220.080364 260.938336,222.881949 260.938336,226.337881 L260.938336,293.91873 L357.766654,293.919071 C358.092733,293.919071 358.418591,293.936063 358.742901,293.969978 L408.090037,299.129991 L408.616046,251.299191 L408.69639,251.299404 L399.080831,228.108853 C397.372362,223.988427 400.400582,219.454612 404.86116,219.454612 L408.011192,219.454271 L408.049987,208.145851 C407.037136,208.925838 405.778696,209.402579 404.410559,209.44018 L404.235408,209.442584 L372.947838,209.442584 C369.491909,209.442584 366.690324,206.640997 366.690324,203.185066 L366.690324,184.666227 L339.241815,185.037694 L339.157262,185.037298 L339.157262,207.641247 C339.157262,209.91482 338.332037,212.111115 336.83488,213.822153 L329.783387,221.881007 C328.001046,223.91797 325.426147,225.086378 322.719498,225.086378 L314.127206,225.086378 C312.843339,225.086378 311.590542,224.691468 310.538757,223.955218 L305.897323,220.706115 L301.080915,220.706115 L296.440106,223.955218 C295.450192,224.648159 294.282218,225.038737 293.077866,225.082289 L292.851658,225.086378 L285.446616,225.086378 C285.196841,225.086378 284.948139,225.076424 284.701034,225.056746 C284.500552,225.076436 284.297006,225.086378 284.091138,225.086378 L270.950359,225.086378 C269.398828,225.086378 267.902625,224.509976 266.752109,223.469033 L253.61133,211.57975 C252.300147,210.39344 251.552065,208.707777 251.552065,206.939577 L251.552065,184.485385 Z M248.423308,232.595399 L230.902269,232.595399 L230.902269,293.91873 L248.423308,293.91873 L248.423308,232.595399 Z M95.7399651,225.759503 C96.0855582,225.759503 96.3657165,226.039661 96.3657165,226.385254 L96.3657165,283.887708 C96.3657165,284.119616 96.2374594,284.332507 96.032442,284.440901 C95.726922,284.602432 95.3483029,284.485704 95.1867721,284.180185 L86.4262524,267.61046 C86.3786027,267.520335 86.353694,267.419931 86.353694,267.317983 L86.353694,227.025142 C86.353694,226.697235 86.6068249,226.42494 86.9338607,226.401053 L95.6943804,225.761165 C95.7095499,225.759503 95.724755,225.759503 95.7399651,225.759503 Z M487.460345,231.969647 L414.22991,231.969647 L419.678327,245.110434 L487.460345,245.110434 L487.460345,231.969647 Z M491.214854,161.703015 L425.510956,166.202796 L425.510956,185.664017 C425.510956,187.88961 424.328841,189.947717 422.406422,191.069128 L420.618832,192.111422 L420.525595,219.454271 L491.214854,219.454271 L491.214854,161.703015 Z M280.962381,146.450316 L280.962381,197.552959 L326.642234,197.552959 L326.642234,146.783216 L280.962381,146.450316 Z M405.894901,155.00184 L388.39326,155.00184 L379.205352,166.027301 L379.205352,171.980988 L385.378313,171.898049 C388.833927,171.851352 391.673112,174.614826 391.720392,178.070442 C391.766506,181.526058 389.003033,184.365245 385.54742,184.411942 L379.205352,184.497274 L379.205352,196.927548 L397.977894,196.927548 L397.977894,194.424541 C397.977894,192.266391 399.089452,190.265729 400.909715,189.123935 L401.082428,189.01943 L408.128834,184.908393 L408.18828,167.389847 L406.540258,167.502589 C403.092406,167.738744 400.105929,165.135147 399.869775,161.687293 C399.633621,158.23944 402.237216,155.252961 405.685067,155.016807 L405.894901,155.00184 Z M264.067093,146.327043 L264.067856,173.149133 C265.573136,174.280062 266.553073,176.074758 266.570099,178.102851 C266.587185,180.168528 265.601445,182.008762 264.067581,183.161163 L264.067093,193.073828 L268.447353,194.917919 L268.447353,146.358956 L264.067093,146.327043 Z M304.428059,155.627932 C312.203901,155.627932 318.507466,162.351739 318.507466,170.645975 C318.507466,178.94021 312.203901,185.664017 304.428059,185.664017 C296.652217,185.664017 290.348652,178.94021 290.348652,170.645975 C290.348652,162.351739 296.652217,155.627932 304.428059,155.627932 Z M185.222416,145.752944 L185.222416,172.522263 L251.552065,171.969724 L251.552065,146.235683 L185.222416,145.752944 Z M339.157262,146.87395 L339.157262,172.522263 L366.690324,172.150567 L366.690324,163.762705 C366.690324,162.298843 367.203541,160.88131 368.140682,159.75674 L378.635918,147.161796 L339.157262,146.87395 Z M425.387777,147.503023 C425.468564,147.904337 425.510956,148.31955 425.510956,148.744663 L425.510956,153.658351 L491.214854,149.157944 L491.214854,147.982497 L425.387777,147.503023 Z M172.707388,51.2327995 L172.707388,120.630547 L503.729882,123.04282 L503.729882,62.1114939 L353.195369,57.1643005 L361.552407,84.1856037 C363.226694,89.5991311 362.276083,95.4840066 358.982484,100.095048 L356.069531,104.173184 C352.595427,109.036933 346.94908,111.878029 340.972993,111.769373 L212.406655,109.431801 C204.573345,109.289378 197.626877,104.748981 194.261317,97.9208961 L194.106293,97.5998967 L193.964283,97.5406881 C192.084745,96.7386145 190.417478,95.5516986 189.000275,94.0990791 L188.816843,93.9081103 C187.096883,92.0894053 185.840216,89.9669342 184.897475,87.6100815 C183.4505,83.9926412 182.719411,79.6714161 182.719411,75.2188313 C182.719411,71.0890674 183.301138,67.1113462 184.569995,63.6208034 L184.658699,63.382539 L181.503576,51.5218969 L172.707388,51.2327995 Z M200.199966,25.0305458 L200.014174,25.0305458 C197.110151,25.0807688 194.531038,26.9560184 193.604097,29.7368418 L191.920357,34.7880645 L191.833186,35.0611055 C191.219983,37.0696426 191.180004,39.2117073 191.720744,41.2448894 L198.038038,64.9990066 C196.397925,66.5814815 195.234439,70.560473 195.234439,75.2188313 C195.234439,81.2667114 197.195548,86.1694871 199.614699,86.1694871 C200.856108,86.1694871 201.976901,84.8784273 202.773964,82.8040871 L204.92056,90.8762272 C205.85421,94.3867509 209.002208,96.8527985 212.634164,96.9188341 L341.200501,99.2564055 C343.05515,99.2901261 344.807464,98.4084068 345.885634,96.8989678 L348.798587,92.8208315 C349.820738,91.3898186 350.115755,89.5634776 349.596149,87.883418 L334.403086,38.7591512 C332.753089,33.4241574 327.911483,29.7146997 322.330921,29.5099083 L200.386563,25.0348835 L200.199966,25.0305458 Z M205.967592,33.7091195 L206.092552,33.7099195 L322.343816,37.3053215 C323.416893,37.3385095 324.349297,38.0523261 324.661368,39.0795591 L338.149337,83.4774855 C338.227188,83.7337421 338.263406,84.0008317 338.258054,84.2685665 C338.221536,85.6504942 337.07283,86.7423346 335.690903,86.70726 L217.764231,83.7141955 C216.650557,83.6859296 215.689605,82.9250311 215.406754,81.8475029 L203.594192,36.8472391 C203.533156,36.6147251 203.505936,36.3746312 203.511299,36.1343547 C203.55351,34.8363829 204.574956,33.7998449 205.844029,33.7143965 L205.967592,33.7091195 Z" id="Shape"></path>
        </g>
    </g>
</svg>