<?xml version="1.0" encoding="UTF-8"?>
<svg width="94px" height="122px" viewBox="0 0 94 122" version="1.1" xmlns="http://www.w3.org/2000/svg" xmlns:xlink="http://www.w3.org/1999/xlink">
    <title>d</title>
    <g id="Page-1" stroke="none" stroke-width="1" fill="none" fill-rule="evenodd">
        <g id="d" transform="translate(0.142, 0.0306)" fill="#FFFFFF" fill-rule="nonzero">
            <path d="M50.31129,45.51376 C52.78411,46.48115 55.15757,47.40729 57.52727,48.34092 C69.27832,52.96785 81.02562,57.60228 92.78605,62.20859 C93.46847,62.47481 93.71781,62.78039 93.7159405,63.54342 C93.68968,82.63232 93.69531,101.72308 93.69531,120.81199 L93.69531,121.87498 C93.28661,121.89372 92.9829,121.91997 92.67731,121.91997 C78.89964,121.92185 65.12008,121.91434 51.34241,121.93871 C50.49689,121.93871 50.24005,121.73436 50.24005,120.85696 C50.26442,96.0819 50.2588,71.30495 50.26067,46.52988 C50.26067,46.22992 50.28692,45.92995 50.30754,45.51376 L50.31129,45.51376 L50.31129,45.51376 Z" id="Path"></path>
            <path d="M0.06748,-7.10542736e-15 L43.39901,-7.10542736e-15 C43.41776,0.30934 43.44775,0.58118 43.44775,0.85302 C43.45337,1.88414 43.44775,2.91527 43.44962,3.94451 C43.46462,21.99666 43.47399,40.04881 43.51712,58.10096 C43.51898,58.9821 43.25839,59.38893 42.42974,59.71326 C28.66893,65.0976 14.92313,70.51943 1.17358,75.93189 C0.83612,76.065 0.48929,76.17374 0.06559,76.32184 L0.06559,-7.10542736e-15 L0.06747,-7.10542736e-15 L0.06748,-7.10542736e-15 Z" id="Path"></path>
            <path d="M43.42339,121.91998 L1.25047,121.91998 C0.42932,121.91998 0.01812,121.5219 0.01687,120.72574 C0.01687,108.7291 0.02437,96.73245 1.42108547e-14,84.7358 C1.42108547e-14,83.97652 0.19685,83.60157 0.94488,83.3091 C14.85004,77.85915 28.7402,72.37545 42.63599,66.90113 C42.86096,66.81302 43.09906,66.75302 43.42152,66.65366 L43.42152,121.91998 L43.42339,121.91998 L43.42339,121.91998 Z" id="Path"></path>
            <path d="M50.26254,0.00187 L93.64094,0.00187 L93.64094,55.21382 C93.19662,55.06009 92.77104,54.93073 92.3586,54.76762 C78.64092,49.36266 64.9251,43.94645 51.19805,38.56587 C50.45002,38.27341 50.24567,37.9097 50.2475273,37.14667 C50.27004,25.1219 50.26441,13.09901 50.26441,1.07424 L50.26441,0.00187 L50.26253,0.00187 L50.26254,0.00187 Z" id="Path"></path>
        </g>
    </g>
</svg>