<?xml version="1.0" encoding="UTF-8"?>
<svg width="600px" height="600px" viewBox="0 0 600 600" version="1.1" xmlns="http://www.w3.org/2000/svg" xmlns:xlink="http://www.w3.org/1999/xlink">
    <title>assets/icon</title>
    <g id="/assets/icon" stroke="none" stroke-width="1" fill="none" fill-rule="evenodd">
        <g id="icon" transform="translate(69, 0)" fill="#000000" fill-rule="nonzero">
            <path d="M247.350662,224 C259.522543,228.759423 271.205347,233.315901 282.869644,237.909229 C340.711451,260.673074 398.534801,283.473817 456.422779,306.136214 C459.781833,307.445979 461.009151,308.94939 461,312.70339 C460.870687,406.618092 460.8984,500.541945 460.8984,594.456696 L460.8984,599.686457 C458.886669,599.778656 457.391727,599.907802 455.887532,599.907802 C388.070159,599.917051 320.243483,599.880103 252.42611,600 C248.264235,600 247,598.994627 247,594.677942 C247.119956,472.788133 247.092293,350.889026 247.101497,228.999167 C247.101497,227.523406 247.230707,226.047596 247.332204,224 L247.350662,224 L247.350662,224 Z" id="Path"></path>
            <path d="M1.0093083,0 L214.418256,0 C214.510601,1.52396536 214.658302,2.86318674 214.658302,4.20240812 C214.685981,9.28222695 214.658302,14.362095 214.667512,19.432652 C214.741387,108.366677 214.787535,197.300701 215,286.234726 C215.009112,290.575667 213.725699,292.579918 209.644576,294.177732 C141.872217,320.703715 74.1737832,347.414393 6.45688049,374.078909 C4.79488093,374.734676 3.08673387,375.270384 1,376 L1,0 L1.00925905,0 L1.0093083,0 Z" id="Path"></path>
            <path d="M214,600 L6.16259071,600 C2.11578322,600 0.0892993384,598.0408 0.083139064,594.122401 C0.083139064,535.07946 0.120100711,476.036469 0,416.993479 C0,413.256589 0.970120021,411.411226 4.6565761,409.971799 C73.1842576,383.149199 141.638016,356.160494 210.11952,329.217954 C211.228221,328.78431 212.401631,328.489012 213.990784,328 L213.990784,600 L214,600 L214,600 Z" id="Path"></path>
            <path d="M247.074099,0 L461,0 L461,272 C458.808781,271.242654 456.709981,270.605366 454.675983,269.801809 C387.025561,243.174437 319.384312,216.491643 251.687681,189.984378 C247.998679,188.543583 246.990902,186.751777 247,182.992733 C247.111086,123.753067 247.083321,64.5226637 247.083321,5.28299834 L247.083321,0 L247.074049,0 L247.074099,0 Z" id="Path"></path>
        </g>
    </g>
</svg>