<?xml version="1.0" encoding="UTF-8"?>
<svg width="960px" height="960px" viewBox="0 0 960 960" version="1.1" xmlns="http://www.w3.org/2000/svg" xmlns:xlink="http://www.w3.org/1999/xlink">
    <title>ams</title>
    <g id="ams" stroke="none" stroke-width="1" fill="none" fill-rule="evenodd">
        <path d="M95.7372979,205 C117.713833,205 349.494131,213.579922 796.580876,230.92296 C799.53392,231.037513 802.403192,231.583255 805.114926,232.509738 L805.282,232.569 L805.404943,232.584321 C820.981197,234.730291 835.490202,242.138707 848.333049,253.784801 L848.882435,254.286511 C862.03917,266.386028 873.465115,282.956898 883.116457,303.195507 C898.582846,335.628116 909.403072,377.394902 914.429186,423.583446 L914.536,424.582 L914.702648,424.622051 C921.021646,426.181021 926.667924,429.447958 931.1241,433.905648 L931.333,434.117 L931.761547,434.204561 C946.835449,437.394193 957.772592,450.618463 958,466.107807 L958,695.017407 C958,712.828844 943.928223,727.378775 926.257027,728.097648 L926.144,728.101 L925.997964,728.271007 C917.899785,737.503019 906.122589,743.432801 892.940201,743.764338 L892.192542,743.77711 L890.255,743.794 L889.823521,744.052703 C884.861399,746.966143 879.12546,748.698835 873.00448,748.871518 L872.446977,748.882908 L801.934212,749.775172 L801.554624,749.777574 C794.985217,749.777574 788.788962,748.01546 783.443768,744.915347 L783.179,744.759 L312.813,748.998 L312.662143,749.10192 C307.292863,752.718835 300.875451,754.894654 293.966879,755.08313 L293.405659,755.094046 L215.648707,756 L215.29998,756 C207.514559,756 200.304426,753.538451 194.405018,749.351326 L194.251,749.24 L154.333,748.16 L154.25332,748.207268 C149.524315,750.937379 144.097836,752.597383 138.303456,752.856553 L137.741572,752.877249 C137.452227,752.885627 137.162776,752.889817 136.873311,752.889817 L136.437484,752.889051 L136.22318,752.886755 L75.1100083,752.013524 C63.5002169,751.847635 53.2017133,746.238053 46.668314,737.608318 L46.465,737.336 L46.0878287,737.007672 C43.021735,734.297778 40.4316394,731.064532 38.4555741,727.449839 L38.447,727.435 L32.5939656,727.167733 C15.8278296,726.400492 2.36677179,713.235676 1.09172933,696.627644 L1.05683086,696.123326 C1.0189526,695.50882 1,694.893294 1,694.277622 L1,477.932247 C1,474.374383 1.5734688,470.839759 2.69835827,467.464374 L5.165,460.063 L5.17122972,459.16454 C5.66109558,397.638236 12.2565777,339.995381 23.6554655,296.040175 L24.0132428,294.671041 C30.2300511,271.06151 37.7811038,251.665724 46.7591913,237.218925 C52.1404835,228.559792 58.1652958,221.429446 65.1414158,215.997014 C74.1061816,209.015987 84.4969884,205 95.7372979,205 Z M165.926046,456.651115 L41,486.094 L41,688.197 L189.663,694.997 L224.5,694.703 L224.5,455.047 L188.511952,454.271706 C180.913048,454.107949 173.324005,454.90745 165.926046,456.651115 Z M244.5,455.478 L244.5,694.535 L886.5,689.133 L886.5,469.313 L244.5,455.478 Z M906.5,471.268 L906.5,688.965 L918,688.869 L918,473.185 L906.5,471.268 Z M95.5778364,246 C91.5534306,246 86.2595168,250.132841 80.4983153,259.429355 C73.9030367,270.071771 67.706127,286.043781 62.4160542,306.225817 C51.5133798,347.820361 45.1742872,404.224756 45.0035406,464.604309 L145.764475,440.855376 C144.143661,386.860455 137.545904,337.465575 127.313298,300.963852 C122.107491,282.393714 116.118141,267.787664 109.815569,258.10351 C104.346058,249.699389 99.3849724,246 95.5778364,246 Z M796.050753,273 C758.57907,273 723.031182,346.199678 715.673278,445.625179 L846.760947,448.452054 C849.316459,445.712753 852.958212,444 857,444 L876.305473,443.998545 C868.679798,345.334095 833.282535,273 796.050753,273 Z M146.570916,295.565323 C157.020031,332.839377 163.759985,382.29402 165.626624,436.264278 C173.301419,434.774805 181.117858,434.107719 188.942853,434.276348 L695.648998,445.196637 C701.332721,365.719251 724.092464,300.371636 756.147598,270.505608 L126.005742,246.202967 C133.910884,258.025359 140.733394,274.74173 146.570916,295.565323 Z" id="Combined-Shape" fill="#000000" fill-rule="nonzero"></path>
    </g>
</svg>