<?xml version="1.0" encoding="UTF-8"?>
<svg width="960px" height="960px" viewBox="0 0 960 960" version="1.1" xmlns="http://www.w3.org/2000/svg" xmlns:xlink="http://www.w3.org/1999/xlink">
    <title>a1-mini</title>
    <g id="a1-mini" stroke="none" stroke-width="1" fill="none" fill-rule="evenodd">
        <path d="M763.701425,7.57464375 C767.24427,21.7460227 769.31234,41.7373701 769.996539,67.7369332 L770.131061,73.1567766 C770.36893,83.3767637 770.491968,92.6307563 770.499623,100.923416 L770.499445,102.733179 L770.491919,105.450219 C770.478016,108.577471 770.446176,111.555551 770.396366,114.384746 C774.491707,119.787035 777.611037,125.970439 779.492647,132.671666 L779.646,133.234 L811.693448,144.848966 C827.363971,150.52804 837.853263,165.319596 838.061481,181.951017 L838.064639,182.455556 L838.064639,290.347003 C838.064639,316.927994 817.648877,339.051761 791.15345,341.182833 L753.276046,344.22833 C743.034782,366.433151 739.132321,399.513406 741.978984,443.352014 C743.05219,459.879394 746.43915,475.375201 752.131319,491.402554 C752.883881,493.52153 753.653251,495.600268 754.456986,497.68163 L754.898901,498.817436 L755.331786,499.913878 C759.187827,509.61166 763.919785,519.69591 771.284779,534.456744 L775.60619,543.10353 C782.494644,556.923575 786.946013,566.282454 790.740271,575.345966 L791.386117,576.901251 L791.820417,577.961578 L792.250267,579.022876 L792.676303,580.086639 C793.383541,581.86246 794.077549,583.654766 794.77161,585.494644 C801.452376,603.204628 805.838726,620.461029 807.935731,638.868081 C813.114828,684.329037 810.387229,718.647682 799.11044,741.948423 L807.434059,744.446785 C819.474824,748.062366 829.445279,756.546769 834.944724,767.832468 L835.195362,768.355328 L874.533278,851.791572 C878.330546,859.845627 879.653036,868.845187 878.333361,877.65118 L876.212683,891.802149 C873.153212,912.217547 856.595417,927.93296 836.048212,929.923244 L722.581179,940.91411 C715.840004,941.567087 709.037148,941.092867 702.451768,939.51091 L664.391,930.367 L654.308,931.713 L654.298946,931.726333 C647.756381,940.199955 637.870575,946.000555 626.506187,947.104905 L625.884856,947.160473 L482.611091,958.86714 C477.747122,959.264567 472.851483,958.768561 468.166068,957.403631 L206.959477,881.310297 C189.29885,876.165496 177.423724,859.639264 178.180925,841.260108 L180.805,777.552 L155.836014,769.96556 C139.153173,764.896428 127.696069,749.615185 127.468595,732.221066 L127.465146,731.693333 L127.465146,710.231111 C127.465146,689.299016 143.603136,671.906744 164.476732,670.3429 L452.72,648.748 L450.855,398.54 L382.893421,401.908762 C378.846149,402.109308 374.793387,401.693623 370.873717,400.677236 L370.140373,400.479628 L303.864073,381.944072 C296.287808,379.825211 289.736582,375.608027 284.768041,370.027522 L284.366,369.569 L284.480821,369.890386 C286.301815,375.100705 287.310199,380.654571 287.382397,386.377443 L287.386565,387.038514 L287.386565,393.167253 C287.386565,419.66179 267.466458,441.92011 241.134266,444.848623 L199.837853,449.441369 C197.929306,449.653627 196.010466,449.76 194.090152,449.76 L144.806145,449.76 C142.691615,449.76 140.579053,449.631022 138.480227,449.373785 L101.989672,444.901409 C75.912417,441.705313 56.3155894,419.560009 56.3155894,393.287624 L56.316,373.61 L33.5456913,317.054469 C31.2937513,311.461138 30.0942742,305.502167 30,299.477316 L30,249.56851 C30,223.417096 50.5363549,201.874513 76.6578776,200.624517 L260.017,191.849 L260.017744,99.5333333 C260.017744,78.8419757 275.788166,61.6037294 296.32333,59.7042251 L296.947055,59.6513716 L298.764,59.511 L298.815196,59.2373629 C300.845536,48.6424747 306.696976,39.2589555 315.056848,32.768418 L315.162,32.688 L315.242608,32.5416195 C317.660688,28.1842596 320.804669,24.2615875 324.535879,20.9512503 L324.746,20.767 L324.831693,20.637112 C332.571051,8.98921443 345.723412,1.24867823 360.698399,1 L374.087638,1 C390.090347,1 404.093288,9.56202048 411.765375,22.3549742 L411.972,22.707 L412.297919,23.0352935 C415.16822,25.977297 417.616139,29.3098245 419.565526,32.9318968 L419.662,33.115 L419.914336,33.2910673 C429.433944,40.0435159 435.954962,50.3784226 437.872358,62.0175275 L437.968,62.633 L456.664,69.486 L456.730973,69.3037901 C464.711712,47.7979908 484.683464,32.0241729 508.751775,30.3228841 L509.70395,30.2630561 L575.62027,26.6379207 C583.299095,26.2156159 590.987508,27.2734615 598.266951,29.7538683 L627.198273,39.6119651 C650.997195,47.721241 667.216085,69.8087486 667.828569,94.9438614 L667.918,98.646 L668.34186,98.4819131 C673.634584,96.4625071 679.300365,95.1800153 685.217862,94.7626159 L686.154278,94.7039186 L723.522887,92.6544242 C724.525934,92.5994118 725.5303,92.57189 726.534854,92.57189 C735.122326,92.57189 743.250127,94.5399745 750.491815,98.0497013 L750.480282,95.8188402 C750.430639,87.930683 750.283602,79.2011811 750.039059,69.635309 L750.003461,68.2630668 C749.354327,43.5959632 747.422397,24.9206439 744.298575,12.4253563 C742.959088,7.06740717 746.216695,1.63806227 751.574644,0.298574999 C756.932593,-1.04091227 762.361938,2.21669467 763.701425,7.57464375 Z M221.35,765.147634 L218.147022,842.906667 L479.353612,919 L617.629,907.700634 L611.461243,829.523055 C611.017324,823.896914 607.238691,819.087446 601.877417,817.324701 L577.366155,809.266178 C576.369057,809.749937 575.273937,810.074905 574.109707,810.204903 L510.410253,817.317605 C505.337608,817.884018 500.202503,817.365273 495.345626,815.795786 L410.925088,788.515509 C410.619994,788.416919 410.322893,788.305053 410.034218,788.180758 L336.073502,793.85585 C333.981833,794.016362 331.878021,793.829365 329.847454,793.30245 L221.35,765.147634 Z M698.999,753.650634 L699,756.743363 C699,761.969431 694.975885,766.314183 689.765136,766.714048 L545.623,777.774634 L608.124269,798.32531 C621.144506,802.606263 630.321186,814.286399 631.399276,827.949885 L636.589,893.723634 L662.608218,890.250943 C665.171807,889.908814 667.776541,890.043184 670.291316,890.64729 L711.794873,900.617384 C714.061971,901.161992 716.403938,901.325248 718.72467,901.100453 L832.191704,890.109586 C834.474727,889.888443 836.314481,888.142286 836.654423,885.873909 L838.775101,871.72294 C838.921732,870.744496 838.774788,869.744545 838.35287,868.84965 L799.014953,785.413406 C798.410087,784.130478 797.288809,783.164813 795.930363,782.756901 L698.999,753.650634 Z M780.601668,786.546157 C785.091094,786.216351 789.328421,788.655212 791.298363,792.70281 L827.461548,867.006521 C827.674173,867.443396 827.805425,867.915353 827.848875,868.399276 C828.046434,870.599563 826.422902,872.543402 824.222614,872.740961 L719.669913,882.128515 C713.836274,882.652304 708.293167,879.489257 705.776344,874.200467 L670.512489,800.097865 C670.299413,799.650112 670.171448,799.166644 670.135118,798.672109 C669.973265,796.468907 671.628105,794.551651 673.831307,794.389798 L780.601668,786.546157 Z M493.706,781.758634 L462.475,784.155634 L501.49545,796.764767 C503.654062,797.462317 505.936331,797.69287 508.190839,797.441131 L532.982,794.672634 L493.706,781.758634 Z M167.465,720.209634 L167.465,730.691634 L167.511731,730.515268 L334.709,773.901 L496.118,761.514634 L496.123426,761.500305 L496.159,761.511634 L679,747.481 L679,739.811634 L338.515774,764.824296 C336.056997,765.004916 333.585349,764.770962 331.204129,764.132212 L167.465,720.209634 Z M522.978,684.108 L226.551,705.803634 L198.727,707.888634 L336.38584,744.815124 C336.602315,744.873193 336.82701,744.894461 337.050535,744.878041 L648.774,721.978634 L522.978,684.108 Z M662.627,343.936 L662.627,682.302 L694.887908,694.14241 C705.895326,698.182208 714.323414,706.722721 718.400799,717.226942 L718.608,717.774 L779.623759,736.09746 C790.055168,717.327169 793.132631,685.620877 788.064269,641.131919 C786.163892,624.450832 782.182044,608.785785 776.058792,592.553712 C775.798301,591.863179 775.537536,591.179183 775.275676,590.499811 L774.684295,588.978224 L774.087134,587.467407 L773.691104,586.479458 L773.291099,585.492696 C769.738443,576.777513 765.651771,568.041162 759.206155,555.041771 L756.19577,549.0008 L753.388761,543.386054 L751.191798,538.96335 C742.706675,521.797636 737.768425,510.720959 733.284634,498.096018 C726.999485,480.39902 723.21954,463.105254 722.021016,444.647986 L721.866808,442.178101 C719.483979,402.407929 722.44799,370.379147 731.011096,346.019776 L692.110586,349.149017 C687.775574,349.497689 683.412713,349.137071 679.193781,348.08136 L662.627,343.936 Z M167.947,710.194634 L167.465146,710.231111 L167.465,711.991634 L167.947,710.194634 Z M618,270.265634 L598,271.709634 L598,685.806634 L622.627,693.220634 L622.627376,307.326667 L623.052872,307.221015 C619.861066,303.115665 618,297.97677 618,292.48988 L618,270.265634 Z M561,274.380634 L499,278.855634 L499,298.934908 C499,306.892884 495.665064,314.130579 490.265869,319.253526 L490.376192,334.07123 C500.2476,343.936902 500.58295,359.928551 490.981422,370.202735 C490.871057,370.320832 490.759693,370.437793 490.647349,370.553609 L492.852,666.259634 L523.361264,664.026679 C524.579688,663.937499 525.804141,664.072336 526.973962,664.424513 L561,674.667634 L561,274.380634 Z M192.484158,360.087857 L154.148,361.457634 L154.613934,362.866225 C157.544965,371.748138 159,381.3014 159,391.490196 C159,397.96 158.413303,404.052834 157.227487,409.76063 L194.090152,409.76 C194.533302,409.76 194.976111,409.735452 195.416545,409.68647 L236.712958,405.093723 C242.789617,404.417912 247.386565,399.281377 247.386565,393.167253 L247.386565,387.038514 C247.386565,381.947732 244.174434,377.410979 239.372727,375.719923 L196.899014,360.761606 C195.482519,360.262747 193.984971,360.034207 192.484158,360.087857 Z M138.02,378.99 L124.872038,383.479563 C121.929861,384.484147 118.796319,384.788231 115.720292,384.370824 L115.208196,384.294572 L96.315,381.230634 L96.3155894,393.287624 C96.3155894,399.350482 100.837934,404.460937 106.855762,405.198497 L136.883405,408.879647 C138.285997,403.72185 139,397.930868 139,391.490196 C139,387.284048 138.695326,383.258482 138.088901,379.408505 L138.02,378.99 Z M79.897,325.080634 L94.209,360.627634 L118.409514,364.552445 L139.517684,357.3449 C138.571446,356.214462 137.823461,354.896902 137.33699,353.436135 L129.682,330.450634 L105.684118,331.91529 C103.772845,332.031927 101.856154,331.804536 100.025227,331.243935 L79.897,325.080634 Z M319,98.0716345 L300.017381,99.5333333 L300.017381,195.171175 C300.389128,202.637104 306.674108,208.987454 314.046352,210.52869 L334.250987,214.752656 C339.348347,215.818306 343,220.312316 343,225.519877 L343,290.073171 C343,294.789441 339.704779,298.864595 335.092964,299.851693 L325.93031,301.812839 C319.934949,303.096067 315.651163,308.393767 315.651163,314.524918 L315.651163,333 L314.637,332.999634 L314.637516,343.422222 L380.913815,361.957778 L392.13,361.401634 L407.364218,360.438345 C408.891505,360.341705 410.324144,359.665128 411.369039,358.547031 C413.63159,356.125972 413.503094,352.329156 411.082035,350.066605 L394.118,334.212634 L384.595518,335.100065 C383.732677,335.180393 382.866572,335.220623 382,335.220623 C366.536027,335.220623 354,322.684596 354,307.220623 L354,153.617744 C354,138.55923 365.909942,126.197517 380.958026,125.637139 L467.657795,122.408634 L467.657795,116.117778 L419,98.2826345 L419,104.221148 C419,109.94933 414.603999,114.718732 408.8948,115.184694 L354.158716,119.65203 C350.273478,119.969127 346.364187,119.499673 342.664488,118.271725 L326.53492,112.918245 C322.036291,111.425129 319,107.218206 319,102.478263 L319,98.0716345 Z M455.176,328.528634 L450,329.010634 L450,330.528941 C450,335.28806 446.294858,339.224554 441.544456,339.512457 L428.794872,340.284826 C432.513378,346.000238 433.770194,352.885716 432.513183,359.400768 L475.560843,357.268608 C475.849579,357.054348 476.120296,356.8132 476.369039,356.547031 C478.63159,354.125972 478.503094,350.329156 476.082035,348.066605 L455.176,328.528634 Z M274.642,344.009 L265.118,344.374 L265.317786,344.512478 C269.282251,347.302986 272.810656,350.618038 275.820359,354.340909 L276.348,355.005 L276.30183,354.852522 C275.314501,351.541649 274.746849,348.066241 274.6518,344.496052 L274.642,344.009 Z M471,142.303458 C470.900739,142.303458 470.801486,142.305306 470.702293,142.309 L381.702293,145.623285 C377.402841,145.783393 374,149.315312 374,153.617744 L374,307.220623 C374,311.638901 377.581722,315.220623 382,315.220623 C382.247592,315.220623 382.495051,315.209129 382.741577,315.186177 L471.741577,306.900463 C475.854758,306.517535 479.001043,303.065877 479.001043,298.934908 L479.001043,230.558701 C474.641327,249.221805 458.299341,262.406761 440.340307,259.882783 C421.186143,257.190841 408.725595,237.828856 411.625571,217.194455 C414.525547,196.560054 431.840281,181.382712 450.994445,184.074654 C465.157378,186.065124 475.660651,197.169757 479.001043,211.163774 L479.001043,150.303458 C479.001043,145.88518 475.418278,142.303458 471,142.303458 Z M307.870341,229.606152 L78.5698142,240.578797 C73.7719836,240.808388 70,244.765189 70,249.56851 L70,270.637885 C70.600763,271.873276 70.9541723,273.252761 70.9959233,274.714488 L71.765,301.674 L105.187,311.908 L136.786031,309.978739 C137.870568,309.466863 139.058198,309.171268 140.283052,309.124372 L297.689008,303.09787 C301.344144,293.201588 309.631208,285.414033 320.217112,282.620502 L116.324312,293.657658 C116.216307,293.663505 116.108163,293.66643 116,293.66643 C112.686292,293.66643 110,290.980138 110,287.66643 L110,271.479036 C110,268.270467 112.52431,265.62972 115.72962,265.485131 L323,256.134634 L323,232.833 L309.953648,230.105456 C309.250729,229.958505 308.556117,229.791853 307.870341,229.606152 Z M787.53709,184.958997 L701.53709,188.944296 C696.199957,189.191622 692,193.590715 692,198.933576 L692,293.263389 C692,293.589174 692.011372,293.91486 692.034094,294.239851 C692.573379,301.953008 699.263305,307.76858 706.976462,307.229295 L736.976946,305.131736 L736.995,305.408634 L787.946539,301.311594 C793.661239,300.851951 798.064639,296.080158 798.064639,290.347003 L798.064639,213.898634 L798,213.899329 L798,194.948277 C798,194.793911 797.996426,194.639567 797.98928,194.485367 C797.733622,188.96844 793.054017,184.703339 787.53709,184.958997 Z M638.000691,181.397954 L638,242.389634 L653.669921,241.352639 C656.425321,241.170341 658.806795,243.256253 658.989093,246.011653 C658.996362,246.121529 659,246.231615 659,246.341732 L659,262.65556 C659,265.277325 656.9749,267.453853 654.359937,267.642588 L638,268.822634 L638,292.48988 C638,294.31198 639.231417,295.903821 640.995076,296.361589 L674.060284,304.944676 C672.991962,302.019256 672.310879,298.896906 672.0828,295.634796 C672.027617,294.845531 672,294.054581 672,293.263389 L672,198.933576 C672,196.942156 672.194492,194.994441 672.565854,193.108887 L647.981516,186.74053 C644.177354,185.755072 640.785455,183.890284 638.000691,181.397954 Z M492.998,118.325634 L492.9989,132.97967 C496.757287,137.74576 499,143.762703 499,150.303458 L499,251.585634 L561,247.483634 L561,129.516634 L544.05386,130.483237 C537.035545,130.883141 530.002991,130.003852 523.299192,127.888255 L492.998,118.325634 Z M628.565,125.667634 L598,127.408634 L598,245.035634 L618,243.712634 L618,179.780006 C618,171.868696 622.620507,164.928951 629.442067,161.699773 L628.565,125.667634 Z M431.430932,219.977917 C429.984054,230.27299 435.614592,239.022076 443.123769,240.077422 C450.632945,241.132768 458.456941,234.274594 459.903819,223.97952 C461.350697,213.684447 455.720159,204.935361 448.210983,203.880015 C440.701806,202.824669 432.877811,209.682843 431.430932,219.977917 Z M662.874744,159.579491 L650,160.498634 L650,163.507411 C650,165.330219 651.232356,166.922491 652.996919,167.379597 L683.53297,175.288998 C684.159282,174.799142 684.805708,174.333561 685.470864,173.893702 L686.593,169.41 L682.261905,169.410256 L682.101167,169.407672 L681.940595,169.399922 L677.969567,169.144207 C674.118646,168.896227 670.440048,167.457262 667.442971,165.026496 C665.526108,163.471833 663.999039,161.614705 662.874744,159.579491 Z M726.534854,132.57189 C726.260885,132.57189 725.986967,132.579396 725.713409,132.594399 L688.3448,134.643894 C681.326566,135.028811 675.370508,139.188431 672.402935,145.087899 L672.478571,145.14956 C672.377966,145.273604 672.281378,145.399598 672.188791,145.527386 C671.388585,147.226325 670.833005,149.061215 670.566148,150.985718 C670.679777,153.347854 671.760934,155.653022 673.74209,157.25983 C675.128678,158.384416 676.83057,159.050149 678.612187,159.164876 L682.428,159.41 L693,159.410256 C696.184539,159.410256 698.538761,162.340043 697.896343,165.423777 L697.850176,165.62508 L696.913482,169.365154 C698.122167,169.158579 699.356238,169.023895 700.61127,168.965736 L754.012,166.490634 L741.534854,161.968889 L741.534854,147.57189 C741.534854,139.287619 734.819125,132.57189 726.534854,132.57189 Z M577.816791,66.5775663 L511.900472,70.2027017 C501.297512,70.7858224 492.998,79.5535421 492.998,90.1725246 L492.998,97.3526345 L529.318218,108.815465 C533.710362,110.201546 538.317898,110.777632 542.916104,110.515625 L628.077,105.662634 L627.840439,95.9182777 C627.636278,87.5399068 622.229981,80.1774043 614.297007,77.4743123 L585.365685,67.6162156 C582.939204,66.7894133 580.3764,66.4367981 577.816791,66.5775663 Z M338.029,76.1706345 L338.029,88.6276345 L339,88.6285714 L339,95.982 L348.964633,99.2899401 C349.98524,99.6286843 351.05724,99.7814377 352.129709,99.7420847 L352.531807,99.7183104 L398.999,95.925 L398.999,90.9516345 L398.457541,90.7533333 L398.457,76.5236345 L359.726232,79.5339648 C355.335391,79.8752411 350.91833,79.4890468 346.653335,78.3909697 L338.029,76.1706345 Z M374.087638,41 L361.424402,41 C359.269264,41 357.52218,42.7470844 357.52218,44.9022222 L357.52218,45.6820414 C357.52218,47.5171865 356.273424,49.1169229 354.493169,49.5623995 L352.753979,49.9976005 C350.973724,50.4430771 349.724968,52.0428135 349.724968,53.8779586 L349.724968,58.3642636 C349.724968,60.1994087 348.476213,61.7991451 346.695958,62.2446218 L341.058161,63.6553782 C339.277906,64.1008549 338.029,65.7005913 338.029,67.5357364 L338.029,70.8846345 L339.246658,66.1579091 L349.146651,68.7067879 C352.345397,69.5303457 355.658193,69.8199914 358.951323,69.5640342 L397.485813,66.5690332 C397.044131,66.0570295 396.470477,65.6541203 395.803993,65.4158697 L387.465969,62.4352414 C385.87457,61.8663575 384.812421,60.3586926 384.812421,58.6686692 L384.812421,53.7719924 C384.812421,51.9864343 383.628984,50.4171172 381.912248,49.926166 L380.890034,49.633834 C379.173297,49.1428828 377.989861,47.5735657 377.989861,45.7880076 L377.989861,44.9022222 C377.989861,42.7470844 376.242776,41 374.087638,41 Z" id="Shape" fill="#000000" fill-rule="nonzero"></path>
    </g>
</svg>