<?xml version="1.0" encoding="UTF-8"?>
<svg width="24px" height="24px" viewBox="0 0 24 24" version="1.1" xmlns="http://www.w3.org/2000/svg" xmlns:xlink="http://www.w3.org/1999/xlink">
    <title>measure_co2</title>
    <g id="Page-1" stroke="none" stroke-width="1" fill="none" fill-rule="evenodd">
        <g id="Bambu-Lab-3D-Printier" transform="translate(-168, -154)" fill="#FFFFFF" fill-rule="nonzero">
            <g id="Buttons" transform="translate(16, 146)">
                <g id="Group-3" transform="translate(134, 0)">
                    <g id="measure_co2" transform="translate(24.75, 11)">
                        <path d="M5.25,0 C8.35660172,0 10.5,2.26655845 10.5,5.0625 C10.5,6.40600962 9.98645525,7.6145232 9.41365534,8.80876145 L9.0363564,9.58682881 L8.88700501,9.89858925 C8.34485947,11.0432884 7.875,12.2085423 7.875,13.5 L2.625,13.5 C2.625,10.4625 0,8.1 0,5.0625 C0,2.26655845 2.14339828,0 5.25,0 Z M5.25,1.5 C3.04043359,1.5 1.5,3.02702823 1.5,5.0625 C1.5,5.94079269 1.7306442,6.66846852 2.44704562,8.17916287 L2.82453426,8.96324683 C3.42788292,10.2241735 3.7869164,11.1051746 3.97016048,11.9562948 L3.979125,12 L6.51975,12 L6.53940088,11.908361 C6.73332217,11.0329163 7.11276385,10.1218303 7.75026894,8.80167486 L8.00630914,8.2725777 C8.75482931,6.70881642 9,5.95830777 9,5.0625 C9,3.02702823 7.45956641,1.5 5.25,1.5 Z M3,14.25 L7.5,14.25 C7.91421356,14.25 8.25,14.5857864 8.25,15 C8.25,15.4142136 7.91421356,15.75 7.5,15.75 L3,15.75 C2.58578644,15.75 2.25,15.4142136 2.25,15 C2.25,14.5857864 2.58578644,14.25 3,14.25 Z M3,16.5 L7.5,16.5 C7.5,17.3284271 6.82842712,18 6,18 L4.5,18 C3.69667673,18 3.04084542,17.3685118 3.00183574,16.5748651 L3,16.5 Z" id="Shape"></path>
                    </g>
                </g>
            </g>
        </g>
    </g>
</svg>