<?xml version="1.0" encoding="UTF-8"?>
<svg width="24px" height="24px" viewBox="0 0 24 24" version="1.1" xmlns="http://www.w3.org/2000/svg" xmlns:xlink="http://www.w3.org/1999/xlink">
    <title>measure_co2</title>
    <g id="Page-1" stroke="none" stroke-width="1" fill="none" fill-rule="evenodd">
        <g id="Bambu-Lab-3D-Printier" transform="translate(-168, -154)" fill="#FFFFFF">
            <g id="Buttons" transform="translate(16, 146)">
                <g id="Group-3" transform="translate(134, 0)">
                    <g id="measure_co2" transform="translate(24.75, 11)">
                        <path d="M2.625,13.5 L7.875,13.5 C7.875,10.4474636 10.5,8.1 10.5,5.0625 C10.5,2.26655845 8.35660172,0 5.25,0 C2.14339828,0 0,2.26655845 0,5.0625 C0,8.1 2.625,10.4625 2.625,13.5 Z M3,14.25 L7.5,14.25 C7.91421356,14.25 8.25,14.5857864 8.25,15 C8.25,15.4142136 7.91421356,15.75 7.5,15.75 L3,15.75 C2.58578644,15.75 2.25,15.4142136 2.25,15 C2.25,14.5857864 2.58578644,14.25 3,14.25 Z M3,16.5 L7.5,16.5 C7.5,17.3284271 6.82842712,18 6,18 L4.5,18 C3.69667673,18 3.04084542,17.3685118 3.00183574,16.5748651 L3,16.5 Z" id="Shape"></path>
                    </g>
                </g>
            </g>
        </g>
    </g>
</svg>