<?xml version="1.0" encoding="UTF-8"?>
<svg width="24px" height="24px" viewBox="0 0 24 24" version="1.1" xmlns="http://www.w3.org/2000/svg" xmlns:xlink="http://www.w3.org/1999/xlink">
    <title>measure_co2</title>
    <g id="Page-1" stroke="none" stroke-width="1" fill="none" fill-rule="evenodd">
        <g id="Bambu-Lab-3D-Printier" transform="translate(-235, -154)" fill="#FFFFFF" fill-rule="nonzero">
            <g id="Buttons" transform="translate(16, 146)">
                <g id="Group-4" transform="translate(201, 0)">
                    <g id="measure_co2" transform="translate(21, 9.5)">
                        <path d="M10.5,0 C10.9142136,-1.11022302e-16 11.25,0.335786438 11.25,0.75 L11.2509865,1.78379331 C12.4565089,2.09421991 13.5642554,2.6481482 14.5186643,3.3900166 L14.9434659,2.96554384 C15.2363591,2.67265062 15.7112329,2.67265062 16.0041261,2.96554384 L16.5344562,3.49587393 C16.8273494,3.78876715 16.8273494,4.26364088 16.5344562,4.5565341 L16.1099834,4.98133567 C17.2945903,6.50532481 18,8.42028377 18,10.5 C18,15.4705627 13.9705627,19.5 9,19.5 C4.02943725,19.5 0,15.4705627 0,10.5 C0,6.3063572 2.86824436,2.78262876 6.75001135,1.78353642 L6.75,0.75 C6.75,0.335786438 7.08578644,0 7.5,0 L10.5,0 Z M9,3 C4.85786438,3 1.5,6.35786438 1.5,10.5 C1.5,14.6421356 4.85786438,18 9,18 C13.1421356,18 16.5,14.6421356 16.5,10.5 C16.5,6.35786438 13.1421356,3 9,3 Z M9,4.875 C9.85691218,4.875 10.6690706,5.0666134 11.3959662,5.40933104 L10.7905311,5.96432695 C10.2362271,5.74532689 9.63216546,5.625 9,5.625 C6.30761184,5.625 4.125,7.80761184 4.125,10.5 C4.125,13.1923882 6.30761184,15.375 9,15.375 C11.6923882,15.375 13.875,13.1923882 13.875,10.5 C13.875,9.86783454 13.7546731,9.26377293 13.535673,8.70946889 L14.090669,8.10403377 C14.4333866,8.83092936 14.625,9.64308782 14.625,10.5 C14.625,13.6066017 12.1066017,16.125 9,16.125 C5.89339828,16.125 3.375,13.6066017 3.375,10.5 C3.375,7.39339828 5.89339828,4.875 9,4.875 Z M13.2426407,6.25735931 C13.3908398,6.40555843 13.3958106,6.64425824 13.2539095,6.79849849 L10.3829164,9.91799549 C10.612174,10.4632863 10.5047552,11.1165651 10.0606602,11.5606602 C9.64803991,11.9732804 9.05483645,12.0952564 8.53545065,11.9265881 L7.91680214,12.5997022 C7.64779806,12.8920979 7.19269357,12.9110606 6.90029783,12.6420565 C6.89294863,12.6352953 6.88574101,12.6283817 6.87867966,12.6213203 C6.59773618,12.3403769 6.59773618,11.8848775 6.87867966,11.603934 L6.90029783,11.5831979 L7.57341189,10.9645493 C7.40474359,10.4451635 7.52671957,9.85196009 7.93933983,9.43933983 C8.38343486,8.99524479 9.03671372,8.88782604 9.58200451,9.11708357 L12.7015015,6.24609047 C12.8557418,6.10418944 13.0944416,6.1091602 13.2426407,6.25735931 Z" id="Combined-Shape"></path>
                    </g>
                </g>
            </g>
        </g>
    </g>
</svg>