<?xml version="1.0" encoding="UTF-8"?>
<svg width="24px" height="24px" viewBox="0 0 24 24" version="1.1" xmlns="http://www.w3.org/2000/svg" xmlns:xlink="http://www.w3.org/1999/xlink">
    <title>measure_co2</title>
    <g id="Page-1" stroke="none" stroke-width="1" fill="none" fill-rule="evenodd">
        <g id="Bambu-Lab-3D-Printier" transform="translate(-235, -154)" fill="#FFFFFF" fill-rule="nonzero">
            <g id="Buttons" transform="translate(16, 146)">
                <g id="Group-4" transform="translate(201, 0)">
                    <g id="measure_co2" transform="translate(21, 9.5)">
                        <path d="M10.5,0 C10.9142136,-1.11022302e-16 11.25,0.335786438 11.25,0.75 L11.2509865,1.78379331 C12.4565089,2.09421991 13.5642554,2.6481482 14.5186643,3.3900166 L14.9434659,2.96554384 C15.2363591,2.67265062 15.7112329,2.67265062 16.0041261,2.96554384 L16.5344562,3.49587393 C16.8273494,3.78876715 16.8273494,4.26364088 16.5344562,4.5565341 L16.1099834,4.98133567 C17.2945903,6.50532481 18,8.42028377 18,10.5 C18,15.4705627 13.9705627,19.5 9,19.5 C4.02943725,19.5 0,15.4705627 0,10.5 C0,6.3063572 2.86824436,2.78262876 6.75001135,1.78353642 L6.75,0.75 C6.75,0.335786438 7.08578644,0 7.5,0 L10.5,0 Z M9,3 C4.85786438,3 1.5,6.35786438 1.5,10.5 C1.5,14.6421356 4.85786438,18 9,18 C13.1421356,18 16.5,14.6421356 16.5,10.5 C16.5,6.35786438 13.1421356,3 9,3 Z M9,4.875 C12.1066017,4.875 14.625,7.39339828 14.625,10.5 C14.625,11.3569122 14.4333866,12.1690706 14.090669,12.8959662 L13.535673,12.2905311 C13.7546731,11.7362271 13.875,11.1321655 13.875,10.5 C13.875,7.80761184 11.6923882,5.625 9,5.625 C6.30761184,5.625 4.125,7.80761184 4.125,10.5 C4.125,13.1923882 6.30761184,15.375 9,15.375 C9.63216546,15.375 10.2362271,15.2546731 10.7905311,15.035673 L11.3959662,15.590669 C10.6690706,15.9333866 9.85691218,16.125 9,16.125 C5.89339828,16.125 3.375,13.6066017 3.375,10.5 C3.375,7.39339828 5.89339828,4.875 9,4.875 Z M7.89606597,8.37867966 L7.91680214,8.40029783 L8.53545065,9.07341189 C9.05483645,8.90474359 9.64803991,9.02671957 10.0606602,9.43933983 C10.5047552,9.88343486 10.612174,10.5367137 10.3829164,11.0820045 L13.2539095,14.2015015 C13.3958106,14.3557418 13.3908398,14.5944416 13.2426407,14.7426407 C13.0944416,14.8908398 12.8557418,14.8958106 12.7015015,14.7539095 L9.58200451,11.8829164 C9.03671372,12.112174 8.38343486,12.0047552 7.93933983,11.5606602 C7.52671957,11.1480399 7.40474359,10.5548365 7.57341189,10.0354507 L6.90029783,9.41680214 C6.60790209,9.14779806 6.5889394,8.69269357 6.85794348,8.40029783 L6.87867966,8.37867966 C7.15962313,8.09773618 7.6151225,8.09773618 7.89606597,8.37867966 Z" id="Combined-Shape"></path>
                    </g>
                </g>
            </g>
        </g>
    </g>
</svg>