<?xml version="1.0" encoding="UTF-8"?>
<svg width="24px" height="24px" viewBox="0 0 24 24" version="1.1" xmlns="http://www.w3.org/2000/svg" xmlns:xlink="http://www.w3.org/1999/xlink">
    <title>measure_co2</title>
    <g id="Page-1" stroke="none" stroke-width="1" fill="none" fill-rule="evenodd">
        <g id="Bambu-Lab-3D-Printier" transform="translate(-302, -154)" fill="#FFFFFF">
            <g id="Buttons" transform="translate(16, 146)">
                <g id="Group-4" transform="translate(268, 0)">
                    <g id="measure_co2" transform="translate(20.25, 10.25)">
                        <path d="M19.2803301,0.219669914 C19.5732233,0.512563133 19.5732233,0.987436867 19.2803301,1.28033009 L1.28033009,19.2803301 C0.987436867,19.5732233 0.512563133,19.5732233 0.219669914,19.2803301 C-0.0732233047,18.9874369 -0.0732233047,18.5125631 0.219669914,18.2196699 L18.2196699,0.219669914 C18.5125631,-0.0732233047 18.9874369,-0.0732233047 19.2803301,0.219669914 Z M13.1209303,9.5827925 C14.977008,9.84546075 16.3682997,10.440156 17.2949102,11.3667665 C18.9116766,12.9835329 18.9116766,15.6781437 17.2949102,17.2949102 C15.6781437,18.9116766 13.252994,19.1811377 12.1751497,18.1032934 C11.2396322,17.167776 12.7400684,15.0142817 11.3907293,12.6999564 C12.4251909,12.123541 13.125,11.0184951 13.125,9.75 C13.125,9.69393436 13.1236329,9.63818802 13.1209303,9.5827925 Z M9.56253208,13.1198814 C9.62458974,13.123279 9.68709389,13.125 9.75,13.125 C9.80606564,13.125 9.86181198,13.1236329 9.9172075,13.1209303 C9.65453925,14.977008 9.05984398,16.3682997 8.13323353,17.2949102 C7.09850299,18.3296407 5.62228743,18.7021437 4.26968766,18.4124192 L9.56253208,13.1198814 Z M4.33487579,11.9855354 L0.983002673,15.3356376 C0.568880332,14.1070232 0.706781637,12.8650747 1.39670659,12.1751497 C1.98366786,11.5881884 3.05009106,11.960151 4.33487579,11.9855354 Z M7.3248503,1.39670659 C8.26036776,2.33222405 6.7599316,4.48571831 8.10927074,6.8000436 C7.07480912,7.37645897 6.375,8.48150489 6.375,9.75 C6.375,9.80606564 6.37636709,9.86181198 6.37906974,9.9172075 C4.52299196,9.65453925 3.13170027,9.05984398 2.20508982,8.13323353 C0.588323353,6.51646707 0.588323353,3.82185629 2.20508982,2.20508982 C3.82185629,0.588323353 6.24700599,0.318862275 7.3248503,1.39670659 Z M18.5173335,4.16536023 C18.931045,5.39364913 18.7930316,6.63511212 18.1032934,7.3248503 C17.5165354,7.91160831 16.4506475,7.5401065 15.1664589,7.51449108 L18.5173335,4.16536023 Z M15.2313187,1.08779653 L9.93830649,6.38016456 C9.87597335,6.37673657 9.81318948,6.375 9.75,6.375 C9.69393436,6.375 9.63818802,6.37636709 9.5827925,6.37906974 C9.84546075,4.52299196 10.440156,3.13170027 11.3667665,2.20508982 C12.4017536,1.17010265 13.8784449,0.797671555 15.2313187,1.08779653 Z" id="Combined-Shape"></path>
                    </g>
                </g>
            </g>
        </g>
    </g>
</svg>