<?xml version="1.0" encoding="UTF-8"?>
<svg width="24px" height="24px" viewBox="0 0 24 24" version="1.1" xmlns="http://www.w3.org/2000/svg" xmlns:xlink="http://www.w3.org/1999/xlink">
    <title>measure_co2</title>
    <g id="Page-1" stroke="none" stroke-width="1" fill="none" fill-rule="evenodd">
        <g id="Bambu-Lab-3D-Printier" transform="translate(-302, -154)" fill="#FFFFFF">
            <g id="Buttons" transform="translate(16, 146)">
                <g id="Group-4" transform="translate(268, 0)">
                    <g id="measure_co2" transform="translate(21, 11)">
                        <path d="M12.3709303,8.8327925 C14.227008,9.09546075 15.6182997,9.69015602 16.5449102,10.6167665 C18.1616766,12.2335329 18.1616766,14.9281437 16.5449102,16.5449102 C14.9281437,18.1616766 12.502994,18.4311377 11.4251497,17.3532934 C10.4896322,16.417776 11.9900684,14.2642817 10.6407293,11.9499564 C11.6751909,11.373541 12.375,10.2684951 12.375,9 C12.375,8.94393436 12.3736329,8.88818802 12.3709303,8.8327925 Z M6.0498752,10.6405856 C6.62645897,11.6751909 7.73150489,12.375 9,12.375 C9.05606564,12.375 9.11181198,12.3736329 9.1672075,12.3709303 C8.90453925,14.227008 8.30984398,15.6182997 7.38323353,16.5449102 C5.76646707,18.1616766 3.07185629,18.1616766 1.45508982,16.5449102 C-0.161676647,14.9281437 -0.431137725,12.502994 0.646706587,11.4251497 C1.57076172,10.5010946 3.68313026,11.9536662 5.96504994,10.6890534 L6.0498752,10.6405856 Z M9,7.125 C10.0355339,7.125 10.875,7.96446609 10.875,9 C10.875,10.0355339 10.0355339,10.875 9,10.875 C7.96446609,10.875 7.125,10.0355339 7.125,9 C7.125,7.96446609 7.96446609,7.125 9,7.125 Z M6.5748503,0.646706587 C7.51036776,1.58222405 6.0099316,3.73571831 7.35927074,6.0500436 C6.32480912,6.62645897 5.625,7.73150489 5.625,9 C5.625,9.05606564 5.62636709,9.11181198 5.62906974,9.1672075 C3.77299196,8.90453925 2.38170027,8.30984398 1.45508982,7.38323353 C-0.161676647,5.76646707 -0.161676647,3.07185629 1.45508982,1.45508982 C3.07185629,-0.161676647 5.49700599,-0.431137725 6.5748503,0.646706587 Z M16.5449102,1.45508982 C18.1616766,3.07185629 18.4311377,5.49700599 17.3532934,6.5748503 C16.417776,7.51036776 14.2642817,6.0099316 11.9499564,7.35927074 C11.373541,6.32480912 10.2684951,5.625 9,5.625 C8.94393436,5.625 8.88818802,5.62636709 8.8327925,5.62906974 C9.09546075,3.77299196 9.69015602,2.38170027 10.6167665,1.45508982 C12.2335329,-0.161676647 14.9281437,-0.161676647 16.5449102,1.45508982 Z" id="Shape"></path>
                    </g>
                </g>
            </g>
        </g>
    </g>
</svg>