<?xml version="1.0" encoding="UTF-8"?>
<svg width="24px" height="24px" viewBox="0 0 24 24" version="1.1" xmlns="http://www.w3.org/2000/svg" xmlns:xlink="http://www.w3.org/1999/xlink">
    <title>measure_co2</title>
    <g id="Page-1" stroke="none" stroke-width="1" fill="none" fill-rule="evenodd">
        <g id="Bambu-Lab-3D-Printier" transform="translate(-235, -154)" fill="#FFFFFF" fill-rule="nonzero">
            <g id="Buttons" transform="translate(16, 146)">
                <g id="Group-4" transform="translate(201, 0)">
                    <g id="measure_co2" transform="translate(21, 9.5)">
                        <path d="M10.5,0 C10.9142136,-1.11022302e-16 11.25,0.335786438 11.25,0.75 L11.2509865,1.78379331 C12.4565089,2.09421991 13.5642554,2.6481482 14.5186643,3.3900166 L14.9434659,2.96554384 C15.2363591,2.67265062 15.7112329,2.67265062 16.0041261,2.96554384 L16.5344562,3.49587393 C16.8273494,3.78876715 16.8273494,4.26364088 16.5344562,4.5565341 L16.1099834,4.98133567 C17.2945903,6.50532481 18,8.42028377 18,10.5 C18,15.4705627 13.9705627,19.5 9,19.5 C4.02943725,19.5 0,15.4705627 0,10.5 C0,6.3063572 2.86824436,2.78262876 6.75001135,1.78353642 L6.75,0.75 C6.75,0.335786438 7.08578644,0 7.5,0 L10.5,0 Z M9,3 C4.85786438,3 1.5,6.35786438 1.5,10.5 C1.5,14.6421356 4.85786438,18 9,18 C13.1421356,18 16.5,14.6421356 16.5,10.5 C16.5,6.35786438 13.1421356,3 9,3 Z M9,4.875 C12.1066017,4.875 14.625,7.39339828 14.625,10.5 C14.625,13.6066017 12.1066017,16.125 9,16.125 C8.14308782,16.125 7.33092936,15.9333866 6.60403377,15.590669 L7.20946889,15.035673 C7.76377293,15.2546731 8.36783454,15.375 9,15.375 C11.6923882,15.375 13.875,13.1923882 13.875,10.5 C13.875,7.80761184 11.6923882,5.625 9,5.625 C6.30761184,5.625 4.125,7.80761184 4.125,10.5 C4.125,11.1321655 4.24532689,11.7362271 4.46432695,12.2905311 L3.90933104,12.8959662 C3.5666134,12.1690706 3.375,11.3569122 3.375,10.5 C3.375,7.39339828 5.89339828,4.875 9,4.875 Z M11.0997022,8.35794348 C11.1070514,8.36470475 11.114259,8.3716183 11.1213203,8.37867966 C11.4022638,8.65962313 11.4022638,9.1151225 11.1213203,9.39606597 L11.0997022,9.41680214 L10.4265881,10.0354507 C10.5952564,10.5548365 10.4732804,11.1480399 10.0606602,11.5606602 C9.61656514,12.0047552 8.96328628,12.112174 8.41799549,11.8829164 L5.29849849,14.7539095 C5.14425824,14.8958106 4.90555843,14.8908398 4.75735931,14.7426407 C4.6091602,14.5944416 4.60418944,14.3557418 4.74609047,14.2015015 L7.61708357,11.0820045 C7.38782604,10.5367137 7.49524479,9.88343486 7.93933983,9.43933983 C8.35196009,9.02671957 8.94516355,8.90474359 9.46454935,9.07341189 L10.0831979,8.40029783 C10.3522019,8.10790209 10.8073064,8.0889394 11.0997022,8.35794348 Z" id="Combined-Shape"></path>
                    </g>
                </g>
            </g>
        </g>
    </g>
</svg>