<?xml version="1.0" encoding="UTF-8"?>
<svg width="24px" height="24px" viewBox="0 0 24 24" version="1.1" xmlns="http://www.w3.org/2000/svg" xmlns:xlink="http://www.w3.org/1999/xlink">
    <title>measure_co2</title>
    <g id="Page-1" stroke="none" stroke-width="1" fill="none" fill-rule="evenodd">
        <g id="Bambu-Lab-3D-Printier" transform="translate(-235, -154)" fill="#FFFFFF" fill-rule="nonzero">
            <g id="Buttons" transform="translate(16, 146)">
                <g id="Group-4" transform="translate(201, 0)">
                    <g id="measure_co2" transform="translate(21, 9.5)">
                        <path d="M10.5,0 C10.9142136,-1.11022302e-16 11.25,0.335786438 11.25,0.75 L11.2509865,1.78379331 C12.4565089,2.09421991 13.5642554,2.6481482 14.5186643,3.3900166 L14.9434659,2.96554384 C15.2363591,2.67265062 15.7112329,2.67265062 16.0041261,2.96554384 L16.5344562,3.49587393 C16.8273494,3.78876715 16.8273494,4.26364088 16.5344562,4.5565341 L16.1099834,4.98133567 C17.2945903,6.50532481 18,8.42028377 18,10.5 C18,15.4705627 13.9705627,19.5 9,19.5 C4.02943725,19.5 0,15.4705627 0,10.5 C0,6.3063572 2.86824436,2.78262876 6.75001135,1.78353642 L6.75,0.75 C6.75,0.335786438 7.08578644,0 7.5,0 L10.5,0 Z M9,3 C4.85786438,3 1.5,6.35786438 1.5,10.5 C1.5,14.6421356 4.85786438,18 9,18 C13.1421356,18 16.5,14.6421356 16.5,10.5 C16.5,6.35786438 13.1421356,3 9,3 Z M9,4.875 C12.1066017,4.875 14.625,7.39339828 14.625,10.5 C14.625,13.6066017 12.1066017,16.125 9,16.125 C5.89339828,16.125 3.375,13.6066017 3.375,10.5 C3.375,9.64308782 3.5666134,8.83092936 3.90933104,8.10403377 L4.46432695,8.70946889 C4.24532689,9.26377293 4.125,9.86783454 4.125,10.5 C4.125,13.1923882 6.30761184,15.375 9,15.375 C11.6923882,15.375 13.875,13.1923882 13.875,10.5 C13.875,7.80761184 11.6923882,5.625 9,5.625 C8.36783454,5.625 7.76377293,5.74532689 7.20946889,5.96432695 L6.60403377,5.40933104 C7.33092936,5.0666134 8.14308782,4.875 9,4.875 Z M5.29849849,6.24609047 L8.41799549,9.11708357 C8.96328628,8.88782604 9.61656514,8.99524479 10.0606602,9.43933983 C10.4732804,9.85196009 10.5952564,10.4451635 10.4265881,10.9645493 L11.0997022,11.5831979 C11.3920979,11.8522019 11.4110606,12.3073064 11.1420565,12.5997022 C11.1352953,12.6070514 11.1283817,12.614259 11.1213203,12.6213203 C10.8403769,12.9022638 10.3848775,12.9022638 10.103934,12.6213203 L10.0831979,12.5997022 L9.46454935,11.9265881 C8.94516355,12.0952564 8.35196009,11.9732804 7.93933983,11.5606602 C7.49524479,11.1165651 7.38782604,10.4632863 7.61708357,9.91799549 L4.74609047,6.79849849 C4.60418944,6.64425824 4.6091602,6.40555843 4.75735931,6.25735931 C4.90555843,6.1091602 5.14425824,6.10418944 5.29849849,6.24609047 Z" id="Combined-Shape"></path>
                    </g>
                </g>
            </g>
        </g>
    </g>
</svg>