<?xml version="1.0" encoding="UTF-8"?>
<svg width="64px" height="64px" viewBox="0 0 64 64" version="1.1" xmlns="http://www.w3.org/2000/svg" xmlns:xlink="http://www.w3.org/1999/xlink">
    <title>layers</title>
    <g id="layers" stroke="none" stroke-width="1" fill="none" fill-rule="evenodd">
        <path d="M32,32 C33.1045695,32 34,32.8954305 34,34 C34,37.3137085 31.3137085,40 28,40 L14,40 C12.8954305,40 12,40.8954305 12,42 C12,43.1045695 12.8954305,44 14,44 L50,44 C53.3137085,44 56,46.6862915 56,50 C56,53.3137085 53.3137085,56 50,56 L10,56 C8.8954305,56 8,55.1045695 8,54 C8,52.8954305 8.8954305,52 10,52 L50,52 C51.1045695,52 52,51.1045695 52,50 C52,48.8954305 51.1045695,48 50,48 L14,48 C10.6862915,48 8,45.3137085 8,42 C8,38.6862915 10.6862915,36 14,36 L28,36 C29.0543618,36 29.9181651,35.1841222 29.9945143,34.1492623 L30,34 C30,32.8954305 30.8954305,32 32,32 Z M44,8 C45.1045695,8 46,8.8954305 46,10 L46,13 C46,14.0543618 45.1841222,14.9181651 44.1492623,14.9945143 L44,15 C43.4477153,15 43,15.4477153 43,16 L43,20.8007812 C42.9986559,22.6830843 41.6851457,24.3097727 39.8453583,24.7075779 L38.810862,24.9282864 L37.8417847,25.1283486 C37.5296621,25.1915948 37.2284426,25.2513998 36.9381262,25.3077633 L36.3215535,28.3922323 C36.1345839,29.3270807 35.3137542,30 34.3603922,30 L29.6396078,30 C28.6862458,30 27.8654161,29.3270807 27.6784465,28.3922323 L27.0628962,25.3078534 C26.4587226,25.1905347 25.807321,25.058302 25.1086914,24.911155 L24.1546417,24.7075779 C22.3148543,24.3097727 21.0013441,22.6830843 21,20.8007812 L21,16 C21,15.4871642 20.6139598,15.0644928 20.1166211,15.0067277 L20,15 C18.8954305,15 18,14.1045695 18,13 L18,10 C18,8.8954305 18.8954305,8 20,8 L44,8 Z" id="Shape" fill="#000000" fill-rule="nonzero"></path>
    </g>
</svg>