<?xml version="1.0" encoding="UTF-8"?>
<svg width="64px" height="64px" viewBox="0 0 64 64" version="1.1" xmlns="http://www.w3.org/2000/svg" xmlns:xlink="http://www.w3.org/1999/xlink">
    <title>progress</title>
    <g id="progress" stroke="none" stroke-width="1" fill="none" fill-rule="evenodd">
        <path d="M32,8 C45.254834,8 56,18.745166 56,32 C56,45.254834 45.254834,56 32,56 C30.8954305,56 30,55.1045695 30,54 C30,52.8954305 30.8954305,52 32,52 C43.045695,52 52,43.045695 52,32 C52,20.954305 43.045695,12 32,12 C30.8954305,12 30,11.1045695 30,10 C30,8.8954305 30.8954305,8 32,8 Z M21.3705982,48.9421197 C22.400121,49.587237 23.4865385,50.1381257 24.615328,50.5873989 C25.6415967,50.9958674 26.1424226,52.1589516 25.7339542,53.1852202 C25.3254857,54.2114888 24.1624015,54.7123148 23.1361328,54.3038463 C21.7829904,53.7652777 20.4807789,53.1049665 19.2466608,52.3316463 C18.3106689,51.7451372 18.0273571,50.5109063 18.6138662,49.5749143 C19.2003753,48.6389224 20.4346063,48.3556106 21.3705982,48.9421197 Z M14.0926089,40.9132976 C14.6345256,42.0057844 15.2725107,43.0404677 15.9986431,44.0081766 C16.6615897,44.8916785 16.4827943,46.1453227 15.5992925,46.8082693 C14.7157906,47.4712159 13.4621464,47.2924206 12.7991998,46.4089187 C11.9266578,45.2460914 11.1600727,44.0028447 10.5092414,42.6907895 C10.0184006,41.7012699 10.4226596,40.5012006 11.4121792,40.0103598 C12.4016989,39.5195189 13.6017681,39.923778 14.0926089,40.9132976 Z M43.0599979,20.3040034 C43.9966709,20.8894241 44.2814173,22.1233248 43.6959966,23.0599979 L31.1959966,43.0599979 C30.5143278,44.1506679 28.995246,44.3236732 28.0857864,43.4142136 L20.5857864,35.9142136 C19.8047379,35.133165 19.8047379,33.866835 20.5857864,33.0857864 C21.366835,32.3047379 22.633165,32.3047379 23.4142136,33.0857864 L29.137,38.808 L40.3040034,20.9400021 C40.8894241,20.0033291 42.1233248,19.7185827 43.0599979,20.3040034 Z M10.2630243,28.0358265 C11.363104,28.1353176 12.1742413,29.1077618 12.0747502,30.2078415 C11.965657,31.4140922 11.9669252,32.6296703 12.0802612,33.841721 C12.1830983,34.9414929 11.3749229,35.9164001 10.2751509,36.0192372 C9.17537901,36.1220743 8.20047179,35.3138989 8.09763472,34.2141269 C7.96145264,32.7577528 7.95992856,31.2969209 8.09100929,29.8475524 C8.19050037,28.7474727 9.16294462,27.9363354 10.2630243,28.0358265 Z M15.4979514,17.3089085 C16.386602,17.9649374 16.5751791,19.2171476 15.9191502,20.1057982 C15.1975905,21.0832161 14.5657813,22.1248081 14.0319048,23.2165692 C13.5466738,24.2088518 12.3489124,24.6198983 11.3566298,24.1346673 C10.3643473,23.6494363 9.95330079,22.4516749 10.4385318,21.4593923 C11.0784897,20.1506979 11.8358812,18.9020728 12.7010618,17.7301073 C13.3570907,16.8414567 14.6093009,16.6528796 15.4979514,17.3089085 Z M25.567625,10.8676441 C25.9825382,11.8913241 25.4890352,13.0575343 24.4653552,13.4724476 C23.33258,13.9315787 22.2525855,14.4892249 21.2340808,15.1384812 C20.302661,15.7322244 19.0662722,15.4584834 18.472529,14.5270636 C17.8787858,13.5956438 18.1525268,12.3592549 19.0839466,11.7655117 C20.30732,10.9856597 21.6040396,10.3161094 22.9628215,9.76537424 C23.9865016,9.35046102 25.1527118,9.84396403 25.567625,10.8676441 Z" id="Shape" fill="#000000" fill-rule="nonzero"></path>
    </g>
</svg>