<?xml version="1.0" encoding="UTF-8"?>
<svg width="64px" height="64px" viewBox="0 0 64 64" version="1.1" xmlns="http://www.w3.org/2000/svg" xmlns:xlink="http://www.w3.org/1999/xlink">
    <title>time_remaining</title>
    <g id="time_remaining" stroke="none" stroke-width="1" fill="none" fill-rule="evenodd">
        <path d="M36.7196004,33.2229713 L39.4712859,34.7516854 C42.8836512,36.647444 45,40.2442093 45,44.1478151 L45,49 C45,50.0543618 45.8158778,50.9181651 46.8507377,50.9945143 L47,51 C48.1045695,51 49,51.8954305 49,53 L49,54 C49,55.1045695 48.1045695,56 47,56 L17,56 C15.8954305,56 15,55.1045695 15,54 L15,53 C15,51.9456382 15.8158778,51.0818349 16.8507377,51.0054857 L17.1492623,50.9945143 C18.1841222,50.9181651 19,50.0543618 19,49 L19,44.1478151 C19,40.2442093 21.1163488,36.647444 24.5287141,34.7516854 L27.2803996,33.2229713 C27.7245426,32.9762252 28,32.5080813 28,32 C28,31.4919187 27.7245426,31.0237748 27.2803996,30.7770287 L24.5287141,29.2483146 C21.1163488,27.352556 19,23.7557907 19,19.8521849 L19,15 C19,13.9456382 18.1841222,13.0818349 17.1492623,13.0054857 L17,13 C15.8954305,13 15,12.1045695 15,11 L15,10 C15,8.8954305 15.8954305,8 17,8 L47,8 C48.1045695,8 49,8.8954305 49,10 L49,11 C49,12.0543618 48.1841222,12.9181651 47.1492623,12.9945143 L46.8507377,13.0054857 C45.8158778,13.0818349 45,13.9456382 45,15 L45,19.8521849 C45,23.7557907 42.8836512,27.352556 39.4712859,29.2483146 L36.7196004,30.7770287 C36.2754574,31.0237748 36,31.4919187 36,32 C36,32.5080813 36.2754574,32.9762252 36.7196004,33.2229713 Z M29.2229713,36.7196004 L26.4712859,38.2483146 C24.3287812,39.4385949 23,41.6968778 23,44.1478151 L23,48 C26.7854517,48 29.8690987,44.9952166 29.995941,41.2406498 L30,41 L30.001164,36.1939944 C29.7599248,36.3895377 29.4999477,36.5657247 29.2229713,36.7196004 Z M33.9998235,36.1947946 L34,41 C34,44.7854517 37.0047834,47.8690987 40.7593502,47.995941 L41,48 L41,44.1478151 C41,41.6968778 39.6712188,39.4385949 37.5287141,38.2483146 L34.7770287,36.7196004 C34.5926297,36.6171565 34.4157653,36.5048236 34.2469486,36.3834735 L33.9998235,36.1947946 Z M41,13 L23,13 L23,19 C23,20.3043478 25.870983,20.9706994 31.612949,20.9990548 L32,21 C38,21 41,20.3333333 41,19 L41,13 Z" id="Shape" fill="#000000"></path>
    </g>
</svg>